<svg width="78" height="78" viewBox="0 0 78 78" fill="none" xmlns="http://www.w3.org/2000/svg">
<path fill-rule="evenodd" clip-rule="evenodd" d="M38.5547 4.29883C34.4604 4.29883 30.5338 5.92527 27.6387 8.82037C24.7436 11.7155 23.1172 15.642 23.1172 19.7363C23.1172 23.8306 24.7436 27.7572 27.6387 30.6523C30.5338 33.5474 34.4604 35.1738 38.5547 35.1738C42.649 35.1738 46.5756 33.5474 49.4706 30.6523C52.3657 27.7572 53.9922 23.8306 53.9922 19.7363C53.9922 15.642 52.3657 11.7155 49.4706 8.82037C46.5756 5.92527 42.649 4.29883 38.5547 4.29883ZM27.9922 19.7363C27.9922 16.935 29.105 14.2484 31.0859 12.2675C33.0667 10.2867 35.7533 9.17383 38.5547 9.17383C41.356 9.17383 44.0426 10.2867 46.0235 12.2675C48.0044 14.2484 49.1172 16.935 49.1172 19.7363C49.1172 22.5377 48.0044 25.2243 46.0235 27.2051C44.0426 29.186 41.356 30.2988 38.5547 30.2988C35.7533 30.2988 33.0667 29.186 31.0859 27.2051C29.105 25.2243 27.9922 22.5377 27.9922 19.7363Z" fill="white"/>
<path d="M60.8371 54.0986C61.3001 54.5492 61.5653 55.1651 61.5745 55.811C61.5836 56.457 61.3359 57.0802 60.8859 57.5436L54.9286 63.6861C54.6904 63.931 54.4034 64.1231 54.0862 64.25C53.769 64.3768 53.4286 64.4355 53.0873 64.4223C52.7459 64.4092 52.4111 64.3244 52.1046 64.1735C51.7981 64.0226 51.5267 63.8089 51.3081 63.5464L48.5976 60.2964C48.3928 60.0503 48.2384 59.7663 48.1433 59.4606C48.0482 59.1549 48.0142 58.8335 48.0433 58.5146C48.0724 58.1958 48.1641 57.8858 48.313 57.6024C48.4619 57.3189 48.6652 57.0676 48.9112 56.8628C49.1573 56.6579 49.4413 56.5035 49.747 56.4084C50.0527 56.3133 50.3742 56.2793 50.693 56.3084C51.0119 56.3376 51.3218 56.4292 51.6053 56.5781C51.8887 56.727 52.14 56.9303 52.3449 57.1764L53.3199 58.3464L57.3889 54.1506C57.839 53.6872 58.4547 53.4214 59.1006 53.4117C59.7466 53.4019 60.37 53.649 60.8339 54.0986" fill="white"/>
<path fill-rule="evenodd" clip-rule="evenodd" d="M44.7622 70.4623C42.7797 70.7646 40.6964 70.9238 38.5547 70.9238C31.9247 70.9238 25.8082 69.3963 21.2582 66.7963C16.7797 64.2353 13.3672 60.3288 13.3672 55.4863C13.3672 50.6438 16.7797 46.7373 21.2582 44.1763C25.8082 41.5763 31.9279 40.0488 38.5547 40.0488C44.4209 40.0488 49.8744 41.2448 54.1937 43.3118C54.3952 43.3032 54.5989 43.2988 54.8047 43.2988C57.2929 43.2991 59.7441 43.9008 61.9497 45.0527C64.1552 46.2046 66.0496 47.8725 67.4715 49.9144C68.8934 51.9563 69.8006 54.3117 70.116 56.7798C70.4313 59.2479 70.1454 61.7557 69.2826 64.0895C68.4198 66.4233 67.0056 68.514 65.1606 70.1834C63.3156 71.8529 61.0943 73.0516 58.6861 73.6775C56.2779 74.3033 53.7541 74.3379 51.3297 73.778C48.9053 73.2182 46.6522 72.0807 44.7622 70.4623ZM44.2422 58.7363C44.2422 55.935 45.355 53.2484 47.3359 51.2675C49.3167 49.2867 52.0033 48.1738 54.8047 48.1738C57.606 48.1738 60.2927 49.2867 62.2735 51.2675C64.2544 53.2484 65.3672 55.935 65.3672 58.7363C65.3672 61.5377 64.2544 64.2243 62.2735 66.2051C60.2927 68.186 57.606 69.2988 54.8047 69.2988C52.0033 69.2988 49.3167 68.186 47.3359 66.2051C45.355 64.2243 44.2422 61.5377 44.2422 58.7363ZM46.4132 45.7786C44.2508 47.179 42.4733 49.0983 41.2426 51.3615C40.0119 53.6248 39.3672 56.1601 39.3672 58.7363C39.3672 61.3461 40.0172 63.8063 41.1547 65.9578C40.3032 66.0185 39.4365 66.0488 38.5547 66.0488C32.6169 66.0488 27.3617 64.6676 23.6762 62.5616C19.9224 60.4166 18.2422 57.8263 18.2422 55.4863C18.2422 53.1463 19.9224 50.5561 23.6762 48.4111C27.3617 46.3051 32.6169 44.9238 38.5547 44.9238C41.3529 44.9238 44.0049 45.2293 46.4132 45.7786Z" fill="white"/>
</svg>
