<svg width="78" height="78" viewBox="0 0 78 78" fill="none" xmlns="http://www.w3.org/2000/svg">
<path d="M12.5547 32.7363C12.5547 20.4806 12.5547 14.3511 16.3637 10.5453C20.1727 6.73958 26.2989 6.73633 38.5547 6.73633C50.8104 6.73633 56.9399 6.73633 60.7457 10.5453C64.5514 14.3543 64.5547 20.4806 64.5547 32.7363V39.2363C64.5547 51.4921 64.5547 57.6216 60.7457 61.4273C56.9367 65.2331 50.8104 65.2363 38.5547 65.2363C26.2989 65.2363 20.1694 65.2363 16.3637 61.4273C12.5579 57.6183 12.5547 51.4921 12.5547 39.2363V32.7363Z" stroke="#2C2C2C" stroke-width="4"/>
<path d="M49.9297 52.2363H54.8047M22.3047 52.2363H27.1797M19.0547 63.6113V68.4863C19.0547 69.3483 19.3971 70.1749 20.0066 70.7844C20.6161 71.3939 21.4427 71.7363 22.3047 71.7363H27.1797C28.0416 71.7363 28.8683 71.3939 29.4778 70.7844C30.0873 70.1749 30.4297 69.3483 30.4297 68.4863V65.2363M58.0547 63.6113V68.4863C58.0547 69.3483 57.7123 70.1749 57.1028 70.7844C56.4933 71.3939 55.6666 71.7363 54.8047 71.7363H49.9297C49.0677 71.7363 48.2411 71.3939 47.6316 70.7844C47.0221 70.1749 46.6797 69.3483 46.6797 68.4863V65.2363M64.5547 29.4863H67.8047C68.6666 29.4863 69.4933 29.8287 70.1028 30.4382C70.7123 31.0477 71.0547 31.8744 71.0547 32.7363V35.9863C71.0547 36.4909 70.9372 36.9885 70.7116 37.4398C70.4859 37.8911 70.1583 38.2836 69.7547 38.5863L64.5547 42.4863H12.5547L7.35469 38.5863C6.95105 38.2836 6.62344 37.8911 6.3978 37.4398C6.17216 36.9885 6.05469 36.4909 6.05469 35.9863V32.7363C6.05469 31.8744 6.3971 31.0477 7.00659 30.4382C7.61608 29.8287 8.44273 29.4863 9.30469 29.4863H12.5547" stroke="#2C2C2C" stroke-width="4" stroke-linecap="round" stroke-linejoin="round"/>
<path d="M62.9297 16.4863H14.1797" stroke="#2C2C2C" stroke-width="4" stroke-linecap="round"/>
</svg>
